#!OML:ASF F:\VICON\USERDATA\INSTALL\rory3\rory3.ASF
:FULLY-SPECIFIED
:DEGREES
1113
root 0.661717 15.6785 3.00674 4.86035 -44.9929 13.848
lowerback -0.256513 4.96871 5.44638
upperback 5.4651 6.48444 -1.41876
thorax 6.64368 3.52442 -4.08615
lowerneck 1.0214 -9.35787 -12.4733
upperneck 47.3476 -18.2339 8.19759
head 21.177 -8.91819 3.43893
rclavicle 3.18055e-015 -1.74931e-014
rhumerus -21.1939 25.7081 -96.7947
rradius 20.3325
rwrist 17.432
rhand -27.2161 -53.2427
rfingers 7.12502
rthumb -0.62883 -83.2215
lclavicle 3.18055e-015 -1.74931e-014
lhumerus -55.6153 -84.1152 131.359
lradius 85.5132
lwrist 24.5713
lhand 1.61888 -18.8584
lfingers 7.12502
lthumb 27.14 9.21021
rfemur -32.589 1.49345 -5.22864
rtibia 76.3913
rfoot -3.73114 -9.34591
rtoes -25.8995
lfemur -49.5788 -19.6235 -29.7694
ltibia 58.2265
lfoot -21.8201 0.284607
ltoes 20.275
1114
root 0.662071 15.6833 3.00499 4.9528 -44.9953 13.7635
lowerback -0.220004 4.94568 5.48183
upperback 5.4495 6.45266 -1.38942
thorax 6.60277 3.50833 -4.08185
lowerneck 0.979118 -9.31824 -12.5223
upperneck 47.3161 -18.1938 8.28213
head 21.1856 -8.90324 3.49645
rclavicle -6.04305e-014 1.11319e-014
rhumerus -21.1588 25.7159 -96.7895
rradius 20.3577
rwrist 17.4268
rhand -27.0285 -53.59
rfingers 7.12502
rthumb -0.447601 -83.5693
lclavicle -6.04305e-014 1.11319e-014
lhumerus -55.5269 -84.0647 131.283
lradius 85.4715
lwrist 24.5612
lhand 1.50018 -18.8771
lfingers 7.12502
lthumb 27.0265 9.20923
rfemur -32.8478 1.40244 -5.0543
rtibia 76.4797
rfoot -2.86368 -9.58813
rtoes -29.649
lfemur -49.6217 -19.6309 -29.646
ltibia 58.2026
lfoot -21.7728 0.222106
ltoes 19.7509
1115
root 0.661403 15.6782 3.00532 4.84622 -45.037 13.9019
lowerback -0.211531 4.95558 5.39237
upperback 5.47382 6.46998 -1.41133
thorax 6.61751 3.51376 -4.0537
lowerneck 0.94196 -9.3355 -12.4509
upperneck 47.2395 -18.2007 8.2683
head 21.1147 -8.89103 3.46981
rclavicle 2.8625e-014 2.70347e-014
rhumerus -21.0574 25.7836 -96.7715
rradius 20.3491
rwrist 17.2079
rhand -26.6226 -54.1188
rfingers 7.12502
rthumb -0.0555364 -84.0985
lclavicle 2.8625e-014 2.70347e-014
lhumerus -55.7836 -84.0317 131.605
lradius 85.4318
lwrist 24.5223
lhand 2.35049 -19.2334
lfingers 7.12502
lthumb 27.8397 8.72396
rfemur -32.7679 1.44414 -5.23482
rtibia 76.4878
rfoot -3.27046 -9.4291
rtoes -29.0829
lfemur -49.6236 -19.6802 -29.6923
ltibia 58.2252
lfoot -21.7907 0.566701
ltoes 17.7437
1116
root 0.660549 15.6816 3.00873 4.60979 -45.1134 14.1815
lowerback -0.142273 4.97703 5.2067
upperback 5.46499 6.51085 -1.45421
thorax 6.55479 3.52451 -3.99999
lowerneck 1.65096 -9.27819 -12.332
upperneck 46.7885 -18.2015 8.44741
head 20.5377 -8.8569 3.46017
rclavicle 1.82087e-013 -7.4743e-014
rhumerus -21.0693 25.8438 -96.7629
rradius 20.2588
rwrist 17.1293
rhand -26.517 -54.1218
rfingers 7.12502
rthumb 0.046422 -84.1015
lclavicle 1.82087e-013 -7.4743e-014
lhumerus -57.3194 -83.9721 133.197
lradius 85.4171
lwrist 24.5097
lhand 2.74309 -19.5111
lfingers 7.12502
lthumb 28.215 8.3849
rfemur -32.8043 1.36561 -5.46929
rtibia 76.5397
rfoot -3.01455 -9.34745
rtoes -29.3491
lfemur -49.5043 -19.762 -29.8877
ltibia 58.1753
lfoot -21.7942 0.863111
ltoes 16.8319
1117
root 0.660716 15.6801 3.00198 4.77122 -45.1447 14.0036
lowerback -0.0463805 4.98142 5.31111
upperback 5.38571 6.51744 -1.4189
thorax 6.42425 3.52798 -4.03276
lowerneck 1.86396 -9.23514 -12.4074
upperneck 46.6979 -18.1381 8.48891
head 20.4161 -8.85221 3.51783
rclavicle -1.58233e-013 4.13472e-014
rhumerus -21.128 25.8237 -96.8003
rradius 20.1359
rwrist 17.3923
rhand -26.7779 -53.6778
rfingers 7.12502
rthumb -0.205549 -83.6575
lclavicle -1.58233e-013 4.13472e-014
lhumerus -58.811 -83.9537 134.641
lradius 85.4726
lwrist 24.5587
lhand 3.06774 -19.4869
lfingers 7.12502
lthumb 28.5253 8.35748
rfemur -32.9063 1.42281 -5.32174
rtibia 76.5808
rfoot -3.12454 -9.31953
rtoes -27.9915
lfemur -49.6109 -19.7585 -29.6828
ltibia 58.1836
lfoot -21.7748 0.679928
ltoes 17.1774
1118
root 0.660334 15.6802 2.9968 4.91935 -45.1713 13.8321
lowerback -0.0478499 5.01505 5.43847
upperback 5.39714 6.55715 -1.40576
thorax 6.45702 3.55459 -4.08476
lowerneck 1.86279 -9.27098 -12.363
upperneck 46.6789 -18.187 8.47736
head 20.4028 -8.86345 3.49465
rclavicle 1.66979e-014 -3.18055e-015
rhumerus -21.0751 25.6884 -96.7796
rradius 20.1554
rwrist 17.5782
rhand -26.9152 -53.5045
rfingers 7.12502
rthumb -0.338152 -83.484
lclavicle 1.66979e-014 -3.18055e-015
lhumerus -59.0221 -84.1054 134.777
lradius 85.5873
lwrist 24.6439
lhand 4.31334 -19.1154
lfingers 7.12502
lthumb 29.7148 8.52311
rfemur -33.1529 1.33224 -5.04828
rtibia 76.6481
rfoot -2.25349 -9.54528
rtoes -30.6534
lfemur -49.6585 -19.6773 -29.5147
ltibia 58.1248
lfoot -21.7374 0.551704
ltoes 17.1298
1119
root 0.657972 15.6737 2.99837 4.6725 -45.2459 14.0637
lowerback -0.0491647 5.06758 5.3202
upperback 5.48782 6.63169 -1.45492
thorax 6.55539 3.59084 -4.06001
lowerneck 1.78079 -9.32907 -12.2965
upperneck 46.6476 -18.279 8.49807
head 20.4153 -8.88023 3.47036
rclavicle 2.70347e-014 1.27222e-014
rhumerus -21.0724 25.6005 -96.7222
rradius 20.2858
rwrist 17.5644
rhand -26.8877 -53.5847
rfingers 7.12502
rthumb -0.311665 -83.5643
lclavicle 2.70347e-014 1.27222e-014
lhumerus -58.917 -84.3011 134.656
lradius 85.6994
lwrist 24.6948
lhand 5.11054 -18.7719
lfingers 7.12502
lthumb 30.4754 8.72826
rfemur -32.8795 1.51788 -5.39178
rtibia 76.6223
rfoot -3.47469 -9.27245
rtoes -25.7595
lfemur -49.5269 -19.6198 -29.7481
ltibia 58.1129
lfoot -21.7546 0.749457
ltoes 16.5685
1120
root 0.656227 15.6883 3.01013 4.45818 -45.2993 14.2789
lowerback -0.0597328 5.12405 5.21439
upperback 5.56015 6.71128 -1.50214
thorax 6.64129 3.62944 -4.0397
lowerneck 1.69925 -9.37769 -12.2554
upperneck 46.6498 -18.3796 8.55628
head 20.4682 -8.90172 3.46868
rclavicle -6.91771e-014 -4.77083e-015
rhumerus -21.0921 25.6453 -96.691
rradius 20.4214
rwrist 17.4201
rhand -26.7815 -53.821
rfingers 7.12502
rthumb -0.209096 -83.8007
lclavicle -6.91771e-014 -4.77083e-015
lhumerus -59.0835 -84.5389 134.835
lradius 85.8094
lwrist 24.7637
lhand 5.23489 -18.4939
lfingers 7.12502
lthumb 30.594 8.98421
rfemur -33.0221 1.23902 -5.40864
rtibia 76.5966
rfoot -1.92717 -9.54123
rtoes -30.4093
lfemur -49.3142 -19.6922 -29.9712
ltibia 58.0318
lfoot -21.7841 0.73117
ltoes 17.938
